<svg width="20" height="21" viewBox="0 0 20 21" fill="none" xmlns="http://www.w3.org/2000/svg">
<g clip-path="url(#clip0_15_15)">
<path d="M19.5466 3.70639C19.2325 3.84575 18.9094 3.96336 18.5794 4.05884C18.9701 3.61691 19.2681 3.09691 19.4499 2.52788C19.4907 2.40033 19.4485 2.26071 19.3436 2.1773C19.2389 2.09381 19.0934 2.08381 18.9781 2.15213C18.2772 2.56788 17.5209 2.86665 16.7279 3.04136C15.9292 2.26084 14.8443 1.81665 13.7227 1.81665C11.3553 1.81665 9.42922 3.74265 9.42922 6.11001C9.42922 6.29646 9.44103 6.48188 9.46438 6.66472C6.52664 6.40678 3.79548 4.96284 1.91999 2.66226C1.85315 2.58026 1.75018 2.53607 1.64477 2.54452C1.53928 2.55278 1.44451 2.61226 1.39122 2.70368C1.01083 3.35639 0.809732 4.10291 0.809732 4.86246C0.809732 5.89697 1.17909 6.87852 1.83154 7.64549C1.63315 7.57678 1.44064 7.49091 1.25689 7.38891C1.15825 7.33401 1.03786 7.33484 0.939862 7.39104C0.841797 7.44723 0.780313 7.55059 0.777733 7.66355C0.777281 7.68259 0.777281 7.70162 0.777281 7.72091C0.777281 9.2651 1.60838 10.6554 2.87902 11.4131C2.76986 11.4022 2.66077 11.3864 2.55238 11.3657C2.44064 11.3443 2.32573 11.3835 2.25038 11.4687C2.17489 11.5539 2.14993 11.6726 2.1847 11.781C2.65502 13.2494 3.86593 14.3294 5.3298 14.6587C4.11567 15.4192 2.72722 15.8175 1.26967 15.8175C0.965539 15.8175 0.659668 15.7996 0.360313 15.7642C0.211603 15.7465 0.0694095 15.8343 0.0187643 15.9757C-0.0318809 16.1172 0.0217966 16.275 0.148313 16.3561C2.02077 17.5567 4.18586 18.1912 6.40941 18.1912C10.7806 18.1912 13.5152 16.1299 15.0394 14.4007C16.94 12.2445 18.0301 9.39052 18.0301 6.57059C18.0301 6.45278 18.0283 6.33381 18.0246 6.21523C18.7745 5.65026 19.4201 4.96652 19.9455 4.18065C20.0253 4.0613 20.0166 3.90355 19.9242 3.79368C19.8319 3.68375 19.678 3.6482 19.5466 3.70639Z" fill="#fff000"/>
</g>
<defs>
<clipPath id="clip0_15_15">
<rect width="20" height="20" fill="white" transform="translate(0 0.00390625)"/>
</clipPath>
</defs>
</svg>
