<svg width="20" height="21" viewBox="0 0 20 21" fill="none" xmlns="http://www.w3.org/2000/svg">
<g clip-path="url(#clip0_15_5)">
<path d="M5.27116 10.6559H7.46348V19.6813C7.46348 19.8595 7.60787 20.0039 7.78606 20.0039H11.5032C11.6814 20.0039 11.8258 19.8595 11.8258 19.6813V10.6984H14.3461C14.5099 10.6984 14.6478 10.5755 14.6665 10.4127L15.0493 7.08997C15.0598 6.99855 15.0308 6.907 14.9697 6.83842C14.9084 6.76978 14.8208 6.73049 14.7289 6.73049H11.8259V4.64765C11.8259 4.01978 12.164 3.70139 12.8308 3.70139C12.9259 3.70139 14.7289 3.70139 14.7289 3.70139C14.9071 3.70139 15.0515 3.55694 15.0515 3.37881V0.328874C15.0515 0.15068 14.9071 0.00629335 14.7289 0.00629335H12.1131C12.0946 0.00539012 12.0537 0.00390625 11.9933 0.00390625C11.5394 0.00390625 9.9618 0.0930029 8.71561 1.23945C7.33483 2.50991 7.52677 4.03107 7.57264 4.29481V6.73042H5.27116C5.09296 6.73042 4.94858 6.87481 4.94858 7.053V10.3333C4.94858 10.5115 5.09296 10.6559 5.27116 10.6559Z" fill="#FCFBFB"/>
<path d="M5.27116 10.6559H7.46348V19.6813C7.46348 19.8595 7.60787 20.0039 7.78606 20.0039H11.5032C11.6814 20.0039 11.8258 19.8595 11.8258 19.6813V10.6984H14.3461C14.5099 10.6984 14.6478 10.5755 14.6665 10.4127L15.0493 7.08997C15.0598 6.99855 15.0308 6.907 14.9697 6.83842C14.9084 6.76978 14.8208 6.73049 14.7289 6.73049H11.8259V4.64765C11.8259 4.01978 12.164 3.70139 12.8308 3.70139C12.9259 3.70139 14.7289 3.70139 14.7289 3.70139C14.9071 3.70139 15.0515 3.55694 15.0515 3.37881V0.328874C15.0515 0.15068 14.9071 0.00629335 14.7289 0.00629335H12.1131C12.0946 0.00539012 12.0537 0.00390625 11.9933 0.00390625C11.5394 0.00390625 9.9618 0.0930029 8.71561 1.23945C7.33483 2.50991 7.52677 4.03107 7.57264 4.29481V6.73042H5.27116C5.09296 6.73042 4.94858 6.87481 4.94858 7.053V10.3333C4.94858 10.5115 5.09296 10.6559 5.27116 10.6559Z" fill="#FFF000"/>
</g>
<defs>
<clipPath id="clip0_15_5">
<rect width="20" height="20" fill="white" transform="translate(0 0.00390625)"/>
</clipPath>
</defs>
</svg>
