<svg width="20" height="21" viewBox="0 0 20 21" fill="none" xmlns="http://www.w3.org/2000/svg">
<g clip-path="url(#clip0_15_9)">
<path d="M4.65548 6.43823H0.640452C0.462258 6.43823 0.317871 6.58268 0.317871 6.76081V19.6594C0.317871 19.8376 0.462258 19.982 0.640452 19.982H4.65548C4.83368 19.982 4.97807 19.8376 4.97807 19.6594V6.76081C4.97807 6.58268 4.83368 6.43823 4.65548 6.43823Z" fill="#fff000"/>
<path d="M2.64942 0.0258789C1.18852 0.0258789 0 1.2131 0 2.67239C0 4.13233 1.18852 5.32001 2.64942 5.32001C4.10916 5.32001 5.29671 4.13227 5.29671 2.67239C5.29677 1.2131 4.10916 0.0258789 2.64942 0.0258789Z" fill="#fff000"/>
<path d="M14.868 6.11743C13.2554 6.11743 12.0634 6.81066 11.3403 7.59833V6.76059C11.3403 6.58246 11.1959 6.43801 11.0178 6.43801H7.17265C6.99445 6.43801 6.85007 6.58246 6.85007 6.76059V19.6592C6.85007 19.8374 6.99445 19.9818 7.17265 19.9818H11.1789C11.3571 19.9818 11.5015 19.8374 11.5015 19.6592V13.2774C11.5015 11.1269 12.0856 10.289 13.5847 10.289C15.2174 10.289 15.3471 11.6321 15.3471 13.388V19.6592C15.3471 19.8374 15.4915 19.9818 15.6697 19.9818H19.6774C19.8556 19.9818 20 19.8374 20 19.6592V12.5841C20 9.3864 19.3903 6.11743 14.868 6.11743Z" fill="#fff000"/>
</g>
<defs>
<clipPath id="clip0_15_9">
<rect width="20" height="20" fill="#fff000" transform="translate(0 0.00390625)"/>
</clipPath>
</defs>
</svg>
