<svg width="76" height="38" viewBox="0 0 76 38" fill="none" xmlns="http://www.w3.org/2000/svg">
<path d="M5.7723 24.9293C5.45035 24.9293 5.12108 24.9656 4.7845 25.0382V28.088H5.44303C7.12594 28.088 7.96739 27.5434 7.96739 26.4542C7.96739 25.4376 7.23569 24.9293 5.7723 24.9293ZM12.3576 33.2074C12.3576 34.8485 11.8161 36.0612 10.7332 36.8454C9.66494 37.6151 7.93812 38 5.55278 38C3.76744 38 2.08453 37.8911 0.504059 37.6732V21.9883C2.01136 21.7705 3.6211 21.6616 5.33327 21.6616C9.72347 21.6616 11.9186 23.0413 11.9186 25.8006C11.9186 26.7301 11.6186 27.5216 11.0186 28.1752C10.4186 28.8142 9.62103 29.2136 8.62592 29.3733V29.4169C9.75274 29.5621 10.6527 29.9905 11.3259 30.7022C12.0137 31.4138 12.3576 32.2489 12.3576 33.2074ZM8.29666 32.7717C8.29666 31.6825 7.49179 31.1379 5.88205 31.1379H4.7845V34.6234C5.12108 34.696 5.45035 34.7323 5.7723 34.7323C6.65033 34.7323 7.28691 34.5726 7.68203 34.2531C8.09178 33.9336 8.29666 33.4398 8.29666 32.7717Z" fill="black"/>
<path d="M21.459 36.2572C21.0493 36.7946 20.5371 37.223 19.9224 37.5425C19.3225 37.8475 18.7078 38 18.0786 38C16.703 38 15.7152 37.6442 15.1152 36.9326C14.5298 36.2209 14.2371 34.9792 14.2371 33.2074V26.4542H18.3639V32.7717C18.3639 33.614 18.4444 34.1732 18.6054 34.4491C18.7664 34.7105 19.0664 34.8412 19.5054 34.8412C19.959 34.8412 20.3615 34.5944 20.7127 34.1006C21.0785 33.6068 21.2615 33.0186 21.2615 32.336V26.4542H25.4321V37.7822H21.5907L21.5029 36.2572H21.459Z" fill="black"/>
<path d="M37.4143 26.2363V29.504C35.7753 29.504 34.5387 29.809 33.7046 30.419C32.8704 31.0289 32.4534 31.8858 32.4534 32.9896V37.7822H28.1949V26.4542H32.1241L32.1461 28.6326H32.19C33.4485 27.0351 35.1899 26.2363 37.4143 26.2363Z" fill="black"/>
<path d="M43.7223 27.9791C44.132 27.4417 44.6369 27.0206 45.2369 26.7156C45.8515 26.3961 46.4735 26.2363 47.1027 26.2363C48.5515 26.2363 49.5905 26.643 50.2198 27.4563C50.849 28.255 51.1637 29.6638 51.1637 31.6825V37.7822H47.0369V32.1182C47.0369 31.0289 46.9344 30.3028 46.7296 29.9397C46.5393 29.5766 46.1881 29.3951 45.6759 29.3951C45.2223 29.3951 44.8125 29.642 44.4467 30.1358C44.0955 30.6296 43.9198 31.2177 43.9198 31.9003V37.7822H39.7492V26.4542H43.5906L43.6784 27.9791H43.7223Z" fill="black"/>
<path d="M57.1261 31.0289H60.8358C60.8358 29.6492 60.2139 28.9594 58.97 28.9594C57.8432 28.9594 57.2285 29.6492 57.1261 31.0289ZM57.17 33.4252C57.4188 34.5871 58.2529 35.168 59.6724 35.168C60.77 35.168 61.8163 34.9139 62.8114 34.4056L63.6894 37.1286C62.3431 37.7095 60.8797 38 59.2993 38C57.4115 38 55.8969 37.4699 54.7554 36.4097C53.6139 35.3496 53.0432 33.919 53.0432 32.1182C53.0432 30.3028 53.5627 28.8723 54.6017 27.8266C55.6554 26.7664 57.0749 26.2363 58.8602 26.2363C60.6895 26.2363 62.1163 26.7519 63.1407 27.783C64.1651 28.7996 64.6772 30.2447 64.6772 32.1182C64.6772 32.5103 64.6407 32.946 64.5675 33.4252H57.17Z" fill="black"/>
<path d="M76 26.2363V29.504C74.361 29.504 73.1244 29.809 72.2903 30.419C71.4561 31.0289 71.0391 31.8858 71.0391 32.9896V37.7822H66.7806V26.4542H70.7098L70.7318 28.6326H70.7757C72.0342 27.0351 73.7756 26.2363 76 26.2363Z" fill="black"/>
<path d="M11.6991 4.68369C10.221 3.95754 8.72104 3.59446 7.19911 3.59446C6.51131 3.59446 5.9918 3.71791 5.64059 3.9648C5.28937 4.19717 5.11377 4.50941 5.11377 4.90154C5.11377 5.5115 5.58937 5.9472 6.54058 6.20861C8.83812 6.81858 10.4552 7.55199 11.3917 8.40886C12.3283 9.25119 12.7966 10.3332 12.7966 11.6548C12.7966 13.2523 12.2405 14.4722 11.1283 15.3146C10.0162 16.1424 8.34056 16.5563 6.10156 16.5563C5.16498 16.5563 4.15524 16.4038 3.07232 16.0988C2.00404 15.7793 1.14795 15.3872 0.504059 14.9225L1.49185 11.5458C2.23819 12.0541 3.04306 12.4535 3.90646 12.744C4.7845 13.0345 5.58937 13.1797 6.32107 13.1797C7.63813 13.1797 8.29666 12.7077 8.29666 11.7637C8.29666 11.1537 7.7113 10.6817 6.54058 10.3477C4.40402 9.73772 2.88208 9.0043 1.97477 8.14744C1.06747 7.29058 0.613814 6.20861 0.613814 4.90154C0.613814 3.46375 1.16259 2.32369 2.26014 1.48135C3.37232 0.639016 4.94547 0.217846 6.9796 0.217846C9.14543 0.217846 10.9747 0.580923 12.4673 1.30708L11.6991 4.68369Z" fill="black"/>
<path d="M16.0508 6.3611C17.1045 5.31544 18.5898 4.79261 20.5069 4.79261C22.4239 4.79261 23.9093 5.31544 24.9629 6.3611C26.0166 7.40676 26.5434 8.84455 26.5434 10.6745C26.5434 12.5044 26.0166 13.9421 24.9629 14.9878C23.9093 16.0335 22.4239 16.5563 20.5069 16.5563C18.5898 16.5563 17.1045 16.0335 16.0508 14.9878C14.9972 13.9421 14.4704 12.5044 14.4704 10.6745C14.4704 8.84455 14.9972 7.40676 16.0508 6.3611ZM19.0362 12.9183C19.3581 13.3685 19.8484 13.5936 20.5069 13.5936C21.1654 13.5936 21.6557 13.3685 21.9776 12.9183C22.2996 12.4681 22.4605 11.7201 22.4605 10.6745C22.4605 9.62879 22.2996 8.88086 21.9776 8.43064C21.6557 7.98043 21.1654 7.75532 20.5069 7.75532C19.8484 7.75532 19.3581 7.98043 19.0362 8.43064C18.7142 8.88086 18.5533 9.62879 18.5533 10.6745C18.5533 11.7201 18.7142 12.4681 19.0362 12.9183Z" fill="black"/>
<path d="M35.6628 14.8135C35.2531 15.3509 34.7409 15.7793 34.1263 16.0988C33.5263 16.4038 32.9117 16.5563 32.2824 16.5563C30.9068 16.5563 29.919 16.2005 29.319 15.4889C28.7337 14.7772 28.441 13.5355 28.441 11.7637V5.01046H32.5678V11.328C32.5678 12.1703 32.6482 12.7295 32.8092 13.0054C32.9702 13.2668 33.2702 13.3975 33.7092 13.3975C34.1629 13.3975 34.5653 13.1506 34.9165 12.6569C35.2824 12.1631 35.4653 11.5749 35.4653 10.8923V5.01046H39.636V16.3384H35.7946L35.7067 14.8135H35.6628Z" fill="black"/>
<path d="M46.3718 6.53538C46.7816 5.99803 47.2865 5.57686 47.8865 5.27187C48.5011 4.95237 49.123 4.79261 49.7523 4.79261C51.2011 4.79261 52.2401 5.19926 52.8693 6.01255C53.4986 6.81132 53.8132 8.22006 53.8132 10.2388V16.3384H49.6864V10.6745C49.6864 9.58522 49.584 8.85907 49.3791 8.49599C49.1889 8.13292 48.8377 7.95138 48.3255 7.95138C47.8718 7.95138 47.4621 8.19827 47.0962 8.69206C46.745 9.18584 46.5694 9.77402 46.5694 10.4566V16.3384H42.3987V5.01046H46.2401L46.3279 6.53538H46.3718Z" fill="black"/>
<path d="M55.8025 10.6745C55.8025 8.80098 56.205 7.35593 57.0098 6.33932C57.8293 5.30818 58.9269 4.79261 60.3025 4.79261C61.5464 4.79261 62.5927 5.30092 63.4415 6.31753H63.4854V0H67.6561V16.3384H63.8146L63.7268 14.8135H63.6829C62.761 15.9754 61.6342 16.5563 60.3025 16.5563C58.9854 16.5563 57.9025 16.0335 57.0537 14.9878C56.2196 13.9421 55.8025 12.5044 55.8025 10.6745ZM59.7537 10.6745C59.7537 11.5458 59.9293 12.2212 60.2805 12.7004C60.6317 13.1652 61.0781 13.3975 61.6195 13.3975C62.1903 13.3975 62.6439 13.1724 62.9805 12.7222C63.3171 12.272 63.4854 11.6257 63.4854 10.7834V10.5655C63.4854 9.73772 63.3171 9.0987 62.9805 8.64849C62.6439 8.18375 62.1903 7.95138 61.6195 7.95138C61.0342 7.95138 60.5732 8.18375 60.2366 8.64849C59.9147 9.0987 59.7537 9.77402 59.7537 10.6745Z" fill="black"/>
</svg>
