<svg width="20" height="34" viewBox="0 0 20 34" fill="none" xmlns="http://www.w3.org/2000/svg">
<path d="M2.2248 27.0549C2.89223 27.9894 3.73423 28.8776 4.75019 29.718C5.76638 30.5584 6.79324 31.2831 7.83195 31.8918C8.87051 32.5008 10.0572 33.102 11.3922 33.6967L11.3698 33.6748L11.4589 33.6967C10.4649 31.8413 9.96814 30.2183 9.96814 28.8268C9.96814 28.0874 10.15 27.388 10.5137 26.7289C10.8769 26.0692 11.3514 25.4781 11.9374 24.9569C12.5236 24.4352 13.1725 23.9135 13.8843 23.3917C14.5961 22.8696 15.308 22.308 16.0206 21.7068C16.7325 21.1054 17.3816 20.4674 17.9675 19.7935C18.5535 19.1194 19.0279 18.3042 19.3917 17.3476C19.7549 16.391 19.9368 15.3473 19.9368 14.217C19.9368 12.7965 19.7326 11.4632 19.325 10.2166C18.917 8.97022 18.3792 7.8794 17.7119 6.94467C17.0447 6.00995 16.203 5.12206 15.1862 4.28176C14.1701 3.44109 13.1433 2.71638 12.1048 2.1078C11.0662 1.49907 9.87961 0.897576 8.54474 0.303314L8.56688 0.325245L8.50016 0.303314C9.47902 2.1873 9.96837 3.81079 9.96837 5.17301C9.96837 5.91218 9.78671 6.6116 9.42322 7.27089C9.05966 7.93034 8.58511 8.52087 7.99928 9.04279C7.41321 9.56448 6.76433 10.0863 6.05232 10.6082C5.34007 11.1299 4.62799 11.6916 3.91605 12.293C3.20404 12.8945 2.55516 13.5323 1.96909 14.206C1.38326 14.8801 0.908716 15.6953 0.545152 16.6519C0.181899 17.6086 0 18.6523 0 19.7825C0 21.203 0.203487 22.5364 0.611474 23.7828C1.01954 25.0293 1.55737 26.1204 2.2248 27.0549Z" fill="#FFF000"/>
</svg>
