<svg width="12" height="21" viewBox="0 0 12 21" fill="none" xmlns="http://www.w3.org/2000/svg">
<path d="M1.27116 10.6559H3.46348V19.6813C3.46348 19.8595 3.60787 20.0039 3.78606 20.0039H7.50322C7.68141 20.0039 7.8258 19.8595 7.8258 19.6813V10.6984H10.3461C10.5099 10.6984 10.6478 10.5755 10.6665 10.4127L11.0493 7.08997C11.0598 6.99855 11.0308 6.907 10.9697 6.83842C10.9084 6.76978 10.8208 6.73049 10.7289 6.73049H7.82593V4.64765C7.82593 4.01978 8.16399 3.70139 8.83083 3.70139C8.92586 3.70139 10.7289 3.70139 10.7289 3.70139C10.9071 3.70139 11.0515 3.55694 11.0515 3.37881V0.328874C11.0515 0.15068 10.9071 0.00629335 10.7289 0.00629335H8.11309C8.09464 0.00539012 8.05367 0.00390625 7.99328 0.00390625C7.53941 0.00390625 5.9618 0.0930029 4.71561 1.23945C3.33483 2.50991 3.52677 4.03107 3.57264 4.29481V6.73042H1.27116C1.09296 6.73042 0.948578 6.87481 0.948578 7.053V10.3333C0.948578 10.5115 1.09296 10.6559 1.27116 10.6559Z" fill="#FFF000"/>
</svg>
