<svg width="72" height="38" viewBox="0 0 72 38" fill="none" xmlns="http://www.w3.org/2000/svg">
<path d="M5.74745 24.9293C5.44373 24.9293 5.1331 24.9656 4.81557 25.0382V28.0881H5.43683C7.02448 28.0881 7.8183 27.5435 7.8183 26.4542C7.8183 25.4376 7.12802 24.9293 5.74745 24.9293ZM11.96 33.2075C11.96 34.8486 11.4492 36.0612 10.4276 36.8455C9.41976 37.6152 7.79069 38.0001 5.54037 38.0001C3.85608 38.0001 2.26843 37.8911 0.77742 37.6733V21.9884C2.1994 21.7705 3.71802 21.6616 5.33328 21.6616C9.47498 21.6616 11.5458 23.0413 11.5458 25.8007C11.5458 26.7302 11.2628 27.5217 10.6968 28.1752C10.1307 28.8142 9.37834 29.2136 8.43956 29.3734V29.4169C9.50259 29.5622 10.3516 29.9906 10.9867 30.7022C11.6356 31.4139 11.96 32.2489 11.96 33.2075ZM8.12893 32.7718C8.12893 31.6825 7.36962 31.1379 5.851 31.1379H4.81557V34.6235C5.1331 34.6961 5.44373 34.7324 5.74745 34.7324C6.57579 34.7324 7.17634 34.5726 7.54909 34.2531C7.93565 33.9336 8.12893 33.4398 8.12893 32.7718Z" fill="white"/>
<path d="M20.5462 36.2573C20.1597 36.7947 19.6765 37.2231 19.0967 37.5426C18.5306 37.8476 17.9508 38.0001 17.3571 38.0001C16.0594 38.0001 15.1275 37.6443 14.5615 36.9326C14.0093 36.221 13.7332 34.9793 13.7332 33.2075V26.4542H17.6264V32.7718C17.6264 33.6141 17.7023 34.1732 17.8541 34.4492C18.006 34.7106 18.289 34.8413 18.7032 34.8413C19.1312 34.8413 19.5108 34.5944 19.8422 34.1006C20.1873 33.6068 20.3599 33.0187 20.3599 32.3361V26.4542H24.2945V37.7822H20.6705L20.5877 36.2573H20.5462Z" fill="white"/>
<path d="M35.5984 26.2364V29.5041C34.0522 29.5041 32.8856 29.8091 32.0987 30.419C31.3117 31.029 30.9183 31.8859 30.9183 32.9896V37.7822H26.9008V26.4542H30.6077L30.6284 28.6327H30.6698C31.8571 27.0352 33.4999 26.2364 35.5984 26.2364Z" fill="white"/>
<path d="M41.5493 27.9792C41.9359 27.4418 42.4122 27.0206 42.9782 26.7156C43.5581 26.3961 44.1448 26.2364 44.7384 26.2364C46.1052 26.2364 47.0854 26.643 47.679 27.4563C48.2727 28.2551 48.5695 29.6638 48.5695 31.6825V37.7822H44.6763V32.1182C44.6763 31.029 44.5797 30.3028 44.3864 29.9398C44.2069 29.5767 43.8756 29.3952 43.3924 29.3952C42.9644 29.3952 42.5779 29.642 42.2327 30.1358C41.9014 30.6296 41.7357 31.2178 41.7357 31.9004V37.7822H37.8011V26.4542H41.4251L41.5079 27.9792H41.5493Z" fill="white"/>
<path d="M54.1944 31.029H57.6942C57.6942 29.6493 57.1074 28.9595 55.934 28.9595C54.8709 28.9595 54.2911 29.6493 54.1944 31.029ZM54.2359 33.4253C54.4706 34.5872 55.2575 35.1681 56.5966 35.1681C57.6321 35.1681 58.6192 34.9139 59.5579 34.4056L60.3863 37.1287C59.1162 37.7096 57.7356 38.0001 56.2446 38.0001C54.4637 38.0001 53.0348 37.47 51.9579 36.4098C50.8811 35.3496 50.3427 33.9191 50.3427 32.1182C50.3427 30.3028 50.8328 28.8723 51.813 27.8267C52.807 26.7665 54.1461 26.2364 55.8304 26.2364C57.5561 26.2364 58.9022 26.752 59.8686 27.7831C60.835 28.7997 61.3182 30.2448 61.3182 32.1182C61.3182 32.5104 61.2837 32.946 61.2146 33.4253H54.2359Z" fill="white"/>
<path d="M72 26.2364V29.5041C70.4538 29.5041 69.2872 29.8091 68.5003 30.419C67.7134 31.029 67.3199 31.8859 67.3199 32.9896V37.7822H63.3025V26.4542H67.0093L67.03 28.6327H67.0714C68.2587 27.0352 69.9016 26.2364 72 26.2364Z" fill="white"/>
<path d="M11.3387 4.68369C9.94437 3.95754 8.52929 3.59446 7.0935 3.59446C6.44464 3.59446 5.95454 3.71791 5.6232 3.9648C5.29187 4.19717 5.1262 4.50941 5.1262 4.90154C5.1262 5.5115 5.57488 5.9472 6.47225 6.20861C8.63974 6.81858 10.1653 7.55199 11.0488 8.40886C11.9324 9.25119 12.3742 10.3332 12.3742 11.6548C12.3742 13.2523 11.8496 14.4722 10.8003 15.3146C9.75109 16.1424 8.17035 16.5563 6.05808 16.5563C5.17452 16.5563 4.22193 16.4038 3.20031 16.0988C2.1925 15.7793 1.38487 15.3872 0.77742 14.9225L1.7093 11.5458C2.41339 12.0541 3.1727 12.4535 3.98723 12.744C4.81557 13.0345 5.57488 13.1797 6.26517 13.1797C7.50767 13.1797 8.12893 12.7077 8.12893 11.7637C8.12893 11.1537 7.5767 10.6817 6.47225 10.3477C4.45663 9.73772 3.02084 9.0043 2.16489 8.14744C1.30894 7.29058 0.880963 6.20861 0.880963 4.90154C0.880963 3.46375 1.39867 2.32369 2.4341 1.48135C3.48333 0.639016 4.96743 0.217846 6.88642 0.217846C8.92966 0.217846 10.6554 0.580923 12.0635 1.30708L11.3387 4.68369Z" fill="white"/>
<path d="M15.4442 6.3611C16.4382 5.31544 17.8395 4.79261 19.648 4.79261C21.4566 4.79261 22.8578 5.31544 23.8518 6.3611C24.8458 7.40676 25.3428 8.84455 25.3428 10.6745C25.3428 12.5044 24.8458 13.9421 23.8518 14.9878C22.8578 16.0335 21.4566 16.5563 19.648 16.5563C17.8395 16.5563 16.4382 16.0335 15.4442 14.9878C14.4502 13.9421 13.9532 12.5044 13.9532 10.6745C13.9532 8.84455 14.4502 7.40676 15.4442 6.3611ZM18.2605 12.9183C18.5643 13.3685 19.0268 13.5936 19.648 13.5936C20.2693 13.5936 20.7318 13.3685 21.0355 12.9183C21.3392 12.4681 21.4911 11.7201 21.4911 10.6745C21.4911 9.62879 21.3392 8.88086 21.0355 8.43064C20.7318 7.98043 20.2693 7.75532 19.648 7.75532C19.0268 7.75532 18.5643 7.98043 18.2605 8.43064C17.9568 8.88086 17.805 9.62879 17.805 10.6745C17.805 11.7201 17.9568 12.4681 18.2605 12.9183Z" fill="white"/>
<path d="M33.9461 14.8135C33.5595 15.3509 33.0763 15.7793 32.4965 16.0988C31.9305 16.4038 31.3506 16.5563 30.757 16.5563C29.4592 16.5563 28.5274 16.2005 27.9613 15.4889C27.4091 14.7772 27.133 13.5355 27.133 11.7637V5.01046H31.0262V11.328C31.0262 12.1703 31.1021 12.7295 31.254 13.0054C31.4058 13.2668 31.6889 13.3975 32.103 13.3975C32.531 13.3975 32.9107 13.1506 33.242 12.6569C33.5871 12.1631 33.7597 11.5749 33.7597 10.8923V5.01046H37.6943V16.3384H34.0703L33.9875 14.8135H33.9461Z" fill="white"/>
<path d="M44.0489 6.53538C44.4355 5.99803 44.9118 5.57686 45.4778 5.27187C46.0576 4.95237 46.6444 4.79261 47.238 4.79261C48.6048 4.79261 49.585 5.19926 50.1786 6.01255C50.7723 6.81132 51.0691 8.22006 51.0691 10.2388V16.3384H47.1759V10.6745C47.1759 9.58522 47.0792 8.85907 46.886 8.49599C46.7065 8.13292 46.3752 7.95138 45.892 7.95138C45.464 7.95138 45.0774 8.19827 44.7323 8.69206C44.401 9.18584 44.2353 9.77402 44.2353 10.4566V16.3384H40.3007V5.01046H43.9247L44.0075 6.53538H44.0489Z" fill="white"/>
<path d="M52.9458 10.6745C52.9458 8.80098 53.3254 7.35593 54.0848 6.33932C54.8579 5.30818 55.8933 4.79261 57.191 4.79261C58.3645 4.79261 59.3516 5.30092 60.1523 6.31753H60.1938V0H64.1284V16.3384H60.5044L60.4215 14.8135H60.3801C59.5104 15.9754 58.4473 16.5563 57.191 16.5563C55.9485 16.5563 54.9269 16.0335 54.1262 14.9878C53.3392 13.9421 52.9458 12.5044 52.9458 10.6745ZM56.6733 10.6745C56.6733 11.5458 56.839 12.2212 57.1703 12.7004C57.5017 13.1652 57.9227 13.3975 58.4335 13.3975C58.972 13.3975 59.3999 13.1724 59.7175 12.7222C60.035 12.272 60.1938 11.6257 60.1938 10.7834V10.5655C60.1938 9.73772 60.035 9.0987 59.7175 8.64849C59.3999 8.18375 58.972 7.95138 58.4335 7.95138C57.8813 7.95138 57.4464 8.18375 57.1289 8.64849C56.8252 9.0987 56.6733 9.77402 56.6733 10.6745Z" fill="white"/>
</svg>
