<svg width="76" height="38" viewBox="0 0 76 38" fill="none" xmlns="http://www.w3.org/2000/svg">
    <path d="M11.7 4.684c-1.479-.726-2.979-1.09-4.5-1.09-.689 0-1.208.124-1.56.37-.35.233-.526.545-.526.938 0 .61.475 1.045 1.427 1.307 2.297.61 3.914 1.343 4.85 2.2.937.842 1.406 1.924 1.406 3.246 0 1.597-.556 2.817-1.669 3.66-1.112.827-2.787 1.241-5.026 1.241-.937 0-1.947-.152-3.03-.457-1.068-.32-1.924-.712-2.568-1.177l.988-3.376a9.847 9.847 0 0 0 2.414 1.198c.879.29 1.683.436 2.415.436 1.317 0 1.976-.472 1.976-1.416 0-.61-.586-1.082-1.756-1.416-2.137-.61-3.659-1.344-4.566-2.2C1.067 7.29.614 6.207.614 4.901c0-1.438.549-2.578 1.646-3.42C3.372.638 4.945.217 6.98.217c2.165 0 3.995.363 5.487 1.09L11.7 4.683zM16.05 6.361c1.055-1.046 2.54-1.568 4.457-1.568 1.917 0 3.402.522 4.456 1.568 1.054 1.046 1.58 2.484 1.58 4.314s-.526 3.267-1.58 4.313c-1.054 1.046-2.54 1.568-4.456 1.568-1.917 0-3.402-.523-4.456-1.568-1.054-1.046-1.58-2.484-1.58-4.313 0-1.83.526-3.268 1.58-4.314zm2.986 6.557c.322.45.812.676 1.47.676.66 0 1.15-.226 1.472-.676.322-.45.482-1.198.482-2.243 0-1.046-.16-1.794-.482-2.244-.322-.45-.813-.676-1.471-.676-.659 0-1.149.225-1.47.676-.323.45-.484 1.198-.484 2.244 0 1.045.161 1.793.483 2.243zM35.663 14.813c-.41.538-.922.966-1.537 1.286-.6.305-1.214.457-1.844.457-1.375 0-2.363-.355-2.963-1.067-.585-.712-.878-1.954-.878-3.725V5.01h4.127v6.318c0 .842.08 1.402.241 1.677.161.262.461.393.9.393.454 0 .856-.247 1.207-.741.366-.494.55-1.082.55-1.765V5.01h4.17v11.328h-3.841l-.088-1.525h-.044zM46.372 6.535c.41-.537.914-.958 1.514-1.263.615-.32 1.237-.48 1.866-.48 1.45 0 2.488.407 3.117 1.22.63.8.944 2.208.944 4.227v6.1h-4.127v-5.664c0-1.09-.102-1.816-.307-2.179-.19-.363-.541-.545-1.053-.545-.454 0-.864.247-1.23.741-.351.494-.527 1.082-.527 1.765v5.881H42.4V5.01h3.841l.088 1.525h.044zM55.803 10.675c0-1.874.402-3.32 1.207-4.336.82-1.03 1.917-1.546 3.293-1.546 1.243 0 2.29.508 3.139 1.525h.043V0h4.171v16.338h-3.841l-.088-1.525h-.044c-.922 1.162-2.049 1.743-3.38 1.743-1.318 0-2.4-.523-3.25-1.568-.833-1.046-1.25-2.484-1.25-4.313zm3.95 0c0 .87.176 1.546.528 2.025.35.465.797.698 1.339.698.57 0 1.024-.226 1.36-.676.337-.45.505-1.096.505-1.939v-.217c0-.828-.168-1.467-.505-1.918a1.595 1.595 0 0 0-1.36-.697c-.586 0-1.047.233-1.383.697-.322.45-.483 1.126-.483 2.027zM5.772 24.824c-.322 0-.65.036-.987.109v3.05h.658c1.683 0 2.524-.545 2.524-1.634 0-1.017-.731-1.525-2.195-1.525zm6.586 8.278c0 1.641-.542 2.854-1.625 3.638-1.068.77-2.795 1.155-5.18 1.155-1.786 0-3.468-.11-5.049-.327V21.883a33.787 33.787 0 0 1 4.83-.327c4.39 0 6.585 1.38 6.585 4.14 0 .929-.3 1.72-.9 2.374-.6.639-1.398 1.038-2.393 1.198v.044c1.127.145 2.027.573 2.7 1.285.688.711 1.032 1.547 1.032 2.505zm-4.061-.435c0-1.09-.805-1.634-2.415-1.634H4.785v3.485c.336.073.665.11.987.11.878 0 1.515-.16 1.91-.48.41-.32.615-.814.615-1.482zM21.459 36.152c-.41.537-.922.966-1.537 1.285-.6.305-1.214.458-1.843.458-1.376 0-2.364-.356-2.964-1.068-.585-.711-.878-1.953-.878-3.725V26.35h4.127v6.317c0 .843.08 1.402.241 1.678.161.261.461.392.9.392.454 0 .857-.247 1.208-.74.365-.495.549-1.083.549-1.765v-5.882h4.17v11.328h-3.841l-.088-1.525h-.044zM37.414 26.131V29.4c-1.639 0-2.875.305-3.71.915-.834.61-1.25 1.466-1.25 2.57v4.793h-4.26V26.349h3.93l.022 2.178h.044c1.259-1.597 3-2.396 5.224-2.396zM43.722 27.874c.41-.537.915-.959 1.515-1.264.614-.32 1.236-.479 1.866-.479 1.448 0 2.487.407 3.117 1.22.629.799.944 2.207.944 4.226v6.1h-4.127v-5.664c0-1.09-.103-1.815-.307-2.178-.19-.364-.542-.545-1.054-.545-.454 0-.864.247-1.23.74-.35.494-.526 1.082-.526 1.765v5.882h-4.17V26.349h3.84l.088 1.525h.044zM57.126 30.924h3.71c0-1.38-.622-2.07-1.866-2.07-1.127 0-1.742.69-1.844 2.07zm.044 2.396c.249 1.162 1.083 1.743 2.502 1.743a6.81 6.81 0 0 0 3.14-.763l.877 2.723c-1.346.581-2.81.872-4.39.872-1.888 0-3.402-.53-4.544-1.59-1.141-1.06-1.712-2.491-1.712-4.292 0-1.815.52-3.246 1.559-4.292 1.053-1.06 2.473-1.59 4.258-1.59 1.83 0 3.256.516 4.28 1.547 1.025 1.016 1.537 2.461 1.537 4.335 0 .392-.036.828-.11 1.307H57.17zM76 26.131V29.4c-1.639 0-2.876.305-3.71.915-.834.61-1.25 1.466-1.25 2.57v4.793h-4.26V26.349h3.93l.022 2.178h.044c1.258-1.597 3-2.396 5.224-2.396z" fill="#000"/>
</svg>
